<svg width="50" height="50" viewBox="0 0 50 50" fill="none" xmlns="http://www.w3.org/2000/svg">
<path d="M28.05 1.75H21.95C15.85 1.75 10.9 6.7 10.9 12.8V37.2C10.9 43.3 15.85 48.25 21.95 48.25H28.05C34.15 48.25 39.1 43.3 39.1 37.2V12.8C39.1 6.7 34.15 1.75 28.05 1.75ZM36.35 37.2C36.35 41.8 32.6 45.5 28.05 45.5H21.95C17.35 45.5 13.65 41.75 13.65 37.2V12.8C13.65 8.2 17.35 4.5 21.95 4.5H28.05C32.65 4.5 36.35 8.25 36.35 12.8V37.2Z" fill="white"/>
<path d="M29.0001 33.7L25.0001 37.7L21.0001 33.7C20.4501 33.15 19.6001 33.15 19.0501 33.7C18.5001 34.25 18.5001 35.1 19.0501 35.65L23.7001 40.3C24.0501 40.65 24.5501 40.85 25.0001 40.85C25.5001 40.85 25.9501 40.65 26.3501 40.3L31.0001 35.65C31.5501 35.1 31.5501 34.25 31.0001 33.7C30.4501 33.15 29.5501 33.2 29.0001 33.7Z" fill="white"/>
<path d="M25 12.55C25.9665 12.55 26.75 11.7665 26.75 10.8C26.75 9.83351 25.9665 9.05 25 9.05C24.0335 9.05 23.25 9.83351 23.25 10.8C23.25 11.7665 24.0335 12.55 25 12.55Z" fill="white"/>
<path d="M25 20.3C25.9665 20.3 26.75 19.5165 26.75 18.55C26.75 17.5835 25.9665 16.8 25 16.8C24.0335 16.8 23.25 17.5835 23.25 18.55C23.25 19.5165 24.0335 20.3 25 20.3Z" fill="white"/>
<path d="M25 28.05C25.9665 28.05 26.75 27.2665 26.75 26.3C26.75 25.3335 25.9665 24.55 25 24.55C24.0335 24.55 23.25 25.3335 23.25 26.3C23.25 27.2665 24.0335 28.05 25 28.05Z" fill="white"/>
</svg>
